HIERARCHY
ROOT Hips
{
	OFFSET 0.000000 89.005402 0.000000
	CHANNELS 6 Xposition Yposition Zposition Xrotation Yrotation Zrotation
	JOINT Spine
	{
		OFFSET 0.116900 10.681000 0.373400
		CHANNELS 3 Xrotation Yrotation Zrotation
		JOINT Spine1
		{
			OFFSET 0.000000 13.840401 0.053500
			CHANNELS 3 Xrotation Yrotation Zrotation
			JOINT Spine2
			{
				OFFSET 0.000000 14.712700 -0.366200
				CHANNELS 3 Xrotation Yrotation Zrotation
				JOINT Neck
				{
					OFFSET 0.000000 35.415497 -3.314200
					CHANNELS 3 Xrotation Yrotation Zrotation
					JOINT Head
					{
						OFFSET 0.000000 16.899200 1.218300
						CHANNELS 3 Xrotation Yrotation Zrotation
						JOINT HeadTop_End
						{
							OFFSET 0.000000 22.206207 2.192500
							CHANNELS 3 Xrotation Yrotation Zrotation
							End Site
							{
								OFFSET 0.000000 22.314178 0.000000
							}
						}
					}
				}
				JOINT LeftShoulder
				{
					OFFSET 12.896400 26.716293 -4.548400
					CHANNELS 3 Xrotation Yrotation Zrotation
					JOINT LeftArm
					{
						OFFSET 19.027000 -4.857010 -1.718400
						CHANNELS 3 Xrotation Yrotation Zrotation
						JOINT LeftForeArm
						{
							OFFSET 24.179897 0.000000 0.000000
							CHANNELS 3 Xrotation Yrotation Zrotation
							JOINT LeftHand
							{
								OFFSET 27.156403 0.000000 0.000000
								CHANNELS 3 Xrotation Yrotation Zrotation
								JOINT LeftHandIndex1
								{
									OFFSET 16.441200 0.000000 0.000000
									CHANNELS 3 Xrotation Yrotation Zrotation
									JOINT LeftHandIndex2
									{
										OFFSET 4.821899 0.000000 0.000000
										CHANNELS 3 Xrotation Yrotation Zrotation
										JOINT LeftHandIndex3
										{
											OFFSET 6.386497 0.000000 0.000000
											CHANNELS 3 Xrotation Yrotation Zrotation
											JOINT LeftHandIndex4
											{
												OFFSET 5.188988 0.000000 0.000000
												CHANNELS 3 Xrotation Yrotation Zrotation
												End Site
												{
													OFFSET -0.178703 5.185913 0.000177
												}
											}
										}
									}
								}
								JOINT LeftHandThumb1
								{
									OFFSET 6.534897 -5.032593 5.900300
									CHANNELS 3 Xrotation Yrotation Zrotation
									JOINT LeftHandThumb2
									{
										OFFSET 3.818176 -2.204422 2.204423
										CHANNELS 3 Xrotation Yrotation Zrotation
										JOINT LeftHandThumb3
										{
											OFFSET 3.252098 -1.877594 1.877601
											CHANNELS 3 Xrotation Yrotation Zrotation
											JOINT LeftHandThumb4
											{
												OFFSET 5.251778 -3.032120 3.032117
												CHANNELS 3 Xrotation Yrotation Zrotation
												End Site
												{
													OFFSET 0.000023 6.780014 0.000000
												}
											}
										}
									}
								}
							}
						}
					}
				}
				JOINT RightShoulder
				{
					OFFSET -12.896300 26.716293 -4.548400
					CHANNELS 3 Xrotation Yrotation Zrotation
					JOINT RightArm
					{
						OFFSET -19.027000 -4.857010 -1.718400
						CHANNELS 3 Xrotation Yrotation Zrotation
						JOINT RightForeArm
						{
							OFFSET -24.179897 0.000000 0.000000
							CHANNELS 3 Xrotation Yrotation Zrotation
							JOINT RightHand
							{
								OFFSET -27.156403 0.000000 0.000000
								CHANNELS 3 Xrotation Yrotation Zrotation
								JOINT RightHandThumb1
								{
									OFFSET -6.591202 -4.852203 5.988100
									CHANNELS 3 Xrotation Yrotation Zrotation
									JOINT RightHandThumb2
									{
										OFFSET -3.818176 -2.204422 2.204423
										CHANNELS 3 Xrotation Yrotation Zrotation
										JOINT RightHandThumb3
										{
											OFFSET -3.252098 -1.877594 1.877601
											CHANNELS 3 Xrotation Yrotation Zrotation
											JOINT RightHandThumb4
											{
												OFFSET -5.251778 -3.032120 3.032117
												CHANNELS 3 Xrotation Yrotation Zrotation
												End Site
												{
													OFFSET -0.000023 6.780014 0.000000
												}
											}
										}
									}
								}
								JOINT RightHandIndex1
								{
									OFFSET -16.029404 0.000000 0.000000
									CHANNELS 3 Xrotation Yrotation Zrotation
									JOINT RightHandIndex2
									{
										OFFSET -5.213303 0.000000 0.000000
										CHANNELS 3 Xrotation Yrotation Zrotation
										JOINT RightHandIndex3
										{
											OFFSET -6.386528 0.000000 0.000000
											CHANNELS 3 Xrotation Yrotation Zrotation
											JOINT RightHandIndex4
											{
												OFFSET -5.189026 0.000000 0.000000
												CHANNELS 3 Xrotation Yrotation Zrotation
												End Site
												{
													OFFSET 0.236702 5.183624 0.001972
												}
											}
										}
									}
								}
							}
						}
					}
				}
			}
		}
	}
	JOINT LeftUpLeg
	{
		OFFSET 14.073000 -7.904099 -1.463000
		CHANNELS 3 Xrotation Yrotation Zrotation
		JOINT LeftLeg
		{
			OFFSET -0.109806 -34.073280 4.093200
			CHANNELS 3 Xrotation Yrotation Zrotation
			JOINT LeftFoot
			{
				OFFSET 0.109806 -29.899420 -6.319000
				CHANNELS 3 Xrotation Yrotation Zrotation
				JOINT LeftToeBase
				{
					OFFSET 1.551100 -14.988700 20.535801
					CHANNELS 3 Xrotation Yrotation Zrotation
					JOINT LeftToe_End
					{
						OFFSET 0.221200 0.570800 13.248301
						CHANNELS 3 Xrotation Yrotation Zrotation
						End Site
						{
							OFFSET 0.000000 13.262435 0.000000
						}
					}
				}
			}
		}
	}
	JOINT RightUpLeg
	{
		OFFSET -13.839300 -7.904099 -1.463000
		CHANNELS 3 Xrotation Yrotation Zrotation
		JOINT RightLeg
		{
			OFFSET 0.109694 -34.073219 4.093300
			CHANNELS 3 Xrotation Yrotation Zrotation
			JOINT RightFoot
			{
				OFFSET -0.109694 -29.899384 -6.319200
				CHANNELS 3 Xrotation Yrotation Zrotation
				JOINT RightToeBase
				{
					OFFSET -1.551100 -14.988700 20.535801
					CHANNELS 3 Xrotation Yrotation Zrotation
					JOINT RightToe_End
					{
						OFFSET -0.221200 0.570900 13.248299
						CHANNELS 3 Xrotation Yrotation Zrotation
						End Site
						{
							OFFSET 0.000000 13.262440 0.000000
						}
					}
				}
			}
		}
	}
}
MOTION
Frames: 8
Frame Time: 0.033333
-2.927387 58.730347 2.197807 74.243159 -4.071759 -3.153145 5.997671 9.164709 -5.872403 -2.039699 1.537148 4.415209 -2.172945 1.560892 4.355962 -3.604615 -2.546424 0.544108 -6.148595 -20.075070 -3.958333 0.000001 -0.000000 -0.000000 0.655422 -3.843242 2.132469 -41.474527 -34.260403 -25.153693 0.000012 -109.474716 0.000016 69.322807 17.066870 9.547519 0.583117 4.484245 -3.985071 0.000002 0.001200 -0.009901 0.000019 0.015642 -0.129707 -0.000000 0.000001 -0.000000 8.852078 6.079159 8.905906 5.724570 13.946556 -1.103733 -2.683884 -6.184930 3.908831 0.000003 -0.000002 0.000000 0.298723 -10.551855 -10.560911 -34.900265 21.962362 26.146994 -0.000000 118.628638 -0.000006 44.795079 -14.939514 -23.572813 -8.877532 -7.067738 -2.051055 17.238110 -37.082296 3.183192 3.423399 -12.416014 -2.095124 0.000000 -0.000000 0.000000 0.636288 -3.406603 27.185082 0.053926 -0.866069 7.125749 0.005720 -0.282595 2.319512 0.000002 0.000000 0.000001 -60.437072 0.425575 37.495771 102.714830 -5.022302 -7.717672 4.459530 -5.408044 5.371650 0.014544 0.000002 0.000011 -0.000000 -0.000001 0.000001 -58.920306 -2.887403 -23.886392 99.246002 7.730244 -3.290845 17.253451 0.752123 22.565804 -0.000000 0.000000 -0.000002 -0.000001 -0.000001 0.000000 
-3.090955 59.149849 3.581352 74.447682 -4.473166 -2.889019 5.901232 9.214762 -6.160633 -2.186495 1.540431 4.435166 -2.321262 1.561966 4.366347 -3.827575 -2.513198 0.497071 -5.985989 -19.968312 -3.832176 0.000000 -0.000000 -0.000000 0.572773 -3.162191 2.685618 -44.783549 -34.109411 -25.056848 -0.000006 -107.374658 0.000013 69.696500 17.163630 7.253305 0.380501 4.054507 -3.151068 -0.000006 0.001201 -0.009905 0.000023 0.013923 -0.115408 0.000003 -0.000000 0.000001 8.649893 6.120228 9.000681 5.187681 12.558759 -0.836635 -2.783949 -6.645886 3.991587 -0.000003 0.000002 -0.000002 0.101392 -11.229412 -11.384188 -38.473848 21.471524 26.372441 -0.000004 116.789623 -0.000010 43.633933 -16.255075 -21.003726 -9.493285 -6.013420 -2.816443 16.090450 -34.998326 2.710575 3.046124 -11.455844 -2.111249 0.000000 0.000001 0.000000 0.698645 -3.447860 25.449164 0.054263 -0.868752 7.147706 0.004382 -0.247248 2.029270 0.000001 0.000002 0.000001 -59.424524 0.710921 37.671488 102.608894 -4.724352 -7.655154 3.019115 -3.759056 7.860529 0.014539 0.000002 -0.000003 -0.000001 0.000002 -0.000001 -57.914765 -2.200958 -24.475310 99.097623 7.764305 -3.577047 16.299461 0.633184 22.452469 -0.000003 0.000001 0.000000 -0.000003 0.000001 0.000000 
-3.280818 59.639679 5.022736 74.696930 -4.835438 -2.601035 5.770235 9.240869 -6.469977 -2.315606 1.544983 4.450845 -2.451399 1.564035 4.377909 -4.031709 -2.462586 0.471152 -5.751726 -19.798733 -3.692105 -0.000002 -0.000001 -0.000000 0.500103 -2.602008 3.061462 -47.589859 -33.817209 -24.903401 -0.000055 -105.375844 -0.000063 69.907280 17.203365 5.189464 0.188802 3.551347 -2.453148 -0.000004 0.001190 -0.009902 0.000013 0.012167 -0.100900 -0.000003 -0.000000 -0.000000 8.359650 6.078975 9.083441 4.637839 11.078429 -0.578570 -2.864204 -7.012204 4.058089 0.000003 -0.000001 0.000001 -0.095625 -11.902321 -12.246866 -41.637933 20.672276 26.626014 -0.000039 114.815248 0.000024 42.225473 -17.340090 -18.639258 -10.063303 -4.932621 -3.531888 15.055112 -33.032513 2.296117 2.677608 -10.499525 -2.121207 0.000000 0.000001 -0.000001 0.700437 -3.430129 24.045387 0.053919 -0.866024 7.125227 0.003715 -0.227747 1.869095 -0.000001 -0.000000 -0.000000 -58.375687 0.531346 37.962697 102.757601 -3.929174 -7.785445 1.081892 -2.326884 11.760510 0.014515 -0.000012 0.000002 0.000001 -0.000002 0.000001 -56.793364 -1.316417 -25.128560 99.420691 7.830395 -3.908135 15.376887 0.535301 21.977930 0.000002 0.000001 0.000000 -0.000002 0.000001 0.000000 
-3.481955 60.205521 6.579758 74.978313 -5.197989 -2.347556 5.627624 9.283373 -6.768942 -2.451192 1.550563 4.476830 -2.588746 1.566845 4.400573 -4.191753 -2.392153 0.483881 -5.539528 -19.596187 -3.506930 -0.000000 0.000001 0.000000 0.452584 -2.208099 3.239152 -49.624319 -33.283092 -24.646251 0.000040 -103.339526 0.000018 69.501614 17.037398 4.685422 0.081414 3.247587 -2.088935 -0.000006 0.001196 -0.009906 0.000003 0.010395 -0.086199 0.000002 -0.000002 0.000001 8.062909 6.092364 9.265114 4.098710 9.565498 -0.334169 -2.911785 -7.237053 4.099640 0.000001 -0.000003 0.000000 -0.283698 -12.571465 -13.135244 -44.103276 19.553010 26.878172 0.000042 112.552795 -0.000046 40.392281 -17.875054 -16.978056 -10.609691 -3.788733 -4.204620 14.091938 -31.125315 1.919056 2.260865 -9.407292 -2.133881 0.000001 0.000001 -0.000001 0.665429 -3.367914 22.847014 0.052946 -0.858154 7.060172 0.003560 -0.223005 1.830054 -0.000000 -0.000001 -0.000001 -56.612576 -1.116686 39.039695 102.940219 0.058699 -7.940824 -0.866777 -2.441343 17.208595 0.014515 -0.000006 -0.000015 0.000001 -0.000001 -0.000002 -55.328975 0.245920 -26.051146 100.052258 7.830285 -4.183056 14.466003 0.511206 21.091411 0.000003 0.000004 0.000001 0.000002 -0.000001 0.000001 
-3.652609 60.702576 8.082466 75.356193 -5.689891 -2.170551 5.406368 9.438736 -7.066144 -2.600363 1.569477 4.527518 -2.741422 1.577336 4.447532 -4.367405 -2.320130 0.530527 -5.415676 -19.457291 -3.282252 0.000000 -0.000000 0.000000 0.405467 -1.818159 3.350194 -51.258401 -32.595213 -24.119054 -0.000136 -101.312128 -0.000129 68.996228 16.915524 5.014232 0.048158 3.185235 -1.800770 -0.000003 0.001197 -0.009899 0.000004 0.008908 -0.073726 -0.000001 0.000001 -0.000001 7.572397 5.980812 9.352546 3.661467 8.289436 -0.141221 -2.974057 -7.552442 4.158944 -0.000003 -0.000001 -0.000001 -0.436583 -13.262505 -13.523081 -46.223841 18.822594 26.753462 0.000007 110.152803 -0.000006 38.570088 -18.425465 -15.646893 -11.042621 -2.606155 -4.887668 13.240101 -29.367481 1.580870 1.884901 -8.410110 -2.147428 0.000000 0.000001 -0.000001 0.644938 -3.337847 21.845196 0.051466 -0.846128 6.960741 0.003400 -0.218046 1.789358 -0.000000 0.000001 -0.000001 -54.491939 -3.085958 40.162322 101.855483 2.160091 -8.038978 -2.046809 -0.604825 19.542964 0.014526 -0.000019 0.000007 -0.000000 0.000000 -0.000001 -53.530163 2.632486 -27.482678 99.736963 7.702465 -4.425068 13.454076 0.428367 21.870020 0.000002 0.000002 0.000002 0.000002 0.000000 0.000000 
-3.739226 61.055344 9.564514 75.830003 -6.234057 -1.991774 5.091273 9.589607 -7.350694 -2.708698 1.591250 4.580330 -2.853755 1.591803 4.497792 -4.531408 -2.221168 0.563997 -5.292732 -19.260010 -3.047573 0.000000 0.000000 -0.000001 0.355556 -1.401449 3.416329 -52.882784 -31.761548 -23.419390 0.000004 -99.596411 0.000031 68.757418 17.075094 3.894864 0.043251 3.224053 -1.612318 -0.000007 0.001196 -0.009908 0.000023 0.007704 -0.063795 0.000002 0.000000 -0.000000 6.995276 5.841758 9.397905 3.294139 7.194503 0.014903 -3.046103 -7.925928 4.229217 0.000001 -0.000001 0.000003 -0.553255 -13.885182 -13.599080 -48.227535 18.238900 26.531428 -0.000048 107.924693 0.000040 36.980878 -19.065585 -14.444838 -11.407093 -1.376645 -5.670179 12.469921 -27.722823 1.287596 1.587797 -7.614486 -2.158226 0.000001 -0.000000 -0.000000 0.628144 -3.318418 20.829717 0.049744 -0.831951 6.843430 0.003204 -0.211472 1.735440 -0.000001 -0.000001 -0.000000 -52.499269 -4.270644 40.807307 99.788852 2.009052 -8.159896 -2.586527 3.709738 20.213322 0.014521 -0.000010 -0.000007 -0.000001 0.000002 0.000003 -52.162722 4.892255 -29.136576 97.974802 7.258442 -4.719879 12.874598 0.482796 22.767394 -0.000002 0.000003 -0.000001 -0.000000 0.000000 -0.000001 
-3.681516 61.263115 11.066559 76.280270 -6.680727 -1.756945 4.708365 9.681998 -7.656626 -2.747694 1.607116 4.644590 -2.896795 1.599880 4.561406 -4.616340 -2.095690 0.604035 -5.040848 -18.961546 -2.810289 -0.000001 -0.000001 0.000000 0.310154 -1.026913 3.469862 -54.380600 -30.907330 -22.653869 -0.000135 -97.742227 -0.000151 68.442771 17.158651 2.838181 -0.021129 2.967051 -2.121398 -0.000007 0.001196 -0.009907 0.000011 0.006831 -0.056605 0.000003 -0.000002 -0.000001 6.310741 5.662017 9.474072 2.947062 6.133048 0.147359 -3.130713 -8.349221 4.307354 0.000002 -0.000002 0.000001 -0.680549 -14.395496 -14.000418 -49.822794 17.234249 26.402404 -0.000050 106.032622 0.000056 35.813646 -19.951420 -13.150494 -11.681036 -0.174221 -6.333546 11.787735 -26.219155 1.032916 1.303099 -6.849133 -2.166577 0.000001 -0.000000 0.000001 0.621355 -3.318836 19.699837 0.048321 -0.819940 6.744197 0.003049 -0.206304 1.693205 -0.000000 -0.000003 -0.000002 -50.515867 -4.631722 41.332842 97.526850 2.113505 -8.222429 -2.674676 7.435388 20.912574 0.014524 -0.000002 0.000004 -0.000001 0.000000 -0.000001 -51.506545 6.310884 -30.651635 95.247254 6.917473 -4.955938 12.864920 0.574073 21.883277 0.000003 0.000001 -0.000000 -0.000002 0.000001 -0.000001 
-3.487906 61.407219 12.635803 76.621930 -7.015456 -1.517069 4.219976 9.796861 -7.974584 -2.735313 1.624696 4.733118 -2.889360 1.605647 4.650870 -4.660579 -1.966492 0.695284 -4.626288 -18.638143 -2.460187 -0.000001 0.000000 0.000000 0.273275 -0.729514 3.527146 -55.294715 -30.183849 -21.465881 -0.000089 -95.603278 -0.000053 67.596388 17.103977 2.450626 -0.254694 2.179264 -3.873307 0.000005 0.001195 -0.009908 -0.000001 0.007364 -0.061089 -0.000001 -0.000001 0.000000 5.277361 5.167165 9.419680 2.543029 4.859880 0.250122 -3.251672 -8.978123 4.422974 -0.000001 -0.000002 0.000002 -0.808966 -14.853626 -14.477488 -50.967121 16.323580 26.042782 -0.000057 104.032824 0.000053 34.965139 -21.141508 -11.647228 -11.834440 1.067008 -6.944388 11.228815 -24.948432 0.834083 1.062618 -6.199413 -2.172207 -0.000000 -0.000001 0.000000 0.605440 -3.318487 18.524301 0.046734 -0.806479 6.632880 0.002909 -0.201501 1.653716 0.000002 -0.000001 -0.000001 -48.642678 -4.395896 41.993844 95.024160 2.401437 -8.193737 -2.085113 10.559202 20.884990 0.022519 -0.000007 -0.000001 -0.000001 0.000002 -0.000003 -50.848969 7.402470 -32.295242 92.200881 6.085131 -5.220902 12.814825 0.565446 20.209008 0.000004 0.000001 0.000001 0.000003 0.000001 -0.000000 
